<svg width="21" height="21" viewBox="0 0 21 21" fill="none" xmlns="http://www.w3.org/2000/svg">
<g id="ant-design:gift-filled">
<path id="Vector" d="M3.28125 18.334C3.28125 18.697 3.57451 18.9902 3.9375 18.9902H9.80273V11.2793H3.28125V18.334ZM11.1973 18.9902H17.0625C17.4255 18.9902 17.7188 18.697 17.7188 18.334V11.2793H11.1973V18.9902ZM18.0469 6.35742H15.0199C15.2988 5.91855 15.4629 5.39766 15.4629 4.83984C15.4629 3.2792 14.1935 2.00977 12.6328 2.00977C11.7838 2.00977 11.0188 2.38711 10.5 2.98184C9.98115 2.38711 9.21621 2.00977 8.36719 2.00977C6.80654 2.00977 5.53711 3.2792 5.53711 4.83984C5.53711 5.39766 5.69912 5.91855 5.98008 6.35742H2.95312C2.59014 6.35742 2.29688 6.65068 2.29688 7.01367V9.88477H9.80273V6.35742H11.1973V9.88477H18.7031V7.01367C18.7031 6.65068 18.4099 6.35742 18.0469 6.35742ZM9.80273 6.27539H8.36719C7.57559 6.27539 6.93164 5.63145 6.93164 4.83984C6.93164 4.04824 7.57559 3.4043 8.36719 3.4043C9.15879 3.4043 9.80273 4.04824 9.80273 4.83984V6.27539ZM12.6328 6.27539H11.1973V4.83984C11.1973 4.04824 11.8412 3.4043 12.6328 3.4043C13.4244 3.4043 14.0684 4.04824 14.0684 4.83984C14.0684 5.63145 13.4244 6.27539 12.6328 6.27539Z" fill="black"/>
</g>
</svg>
